<mxfile host="app.diagrams.net" modified="2023-01-11T04:37:27.315Z" agent="5.0 (Windows NT 10.0; Win64; x64) AppleWebKit/537.36 (KHTML, like Gecko) Chrome/108.0.0.0 Safari/537.36" etag="X8q5q0jDNoRWgzuT-Wui" version="20.8.3" type="github">
  <diagram id="kgpKYQtTHZ0yAKxKKP6v" name="Page-1">
    <mxGraphModel dx="2200" dy="277" grid="1" gridSize="10" guides="1" tooltips="1" connect="1" arrows="1" fold="1" page="1" pageScale="1" pageWidth="850" pageHeight="1100" math="0" shadow="0">
      <root>
        <mxCell id="0" />
        <mxCell id="1" parent="0" />
        <mxCell id="3nuBFxr9cyL0pnOWT2aG-1" value="HomeView" style="shape=umlLifeline;perimeter=lifelinePerimeter;container=1;collapsible=0;recursiveResize=0;rounded=0;shadow=0;strokeWidth=1;" parent="1" vertex="1">
          <mxGeometry x="-760" y="59" width="100" height="2771" as="geometry" />
        </mxCell>
        <mxCell id="3nuBFxr9cyL0pnOWT2aG-2" value="" style="points=[];perimeter=orthogonalPerimeter;rounded=0;shadow=0;strokeWidth=1;" parent="3nuBFxr9cyL0pnOWT2aG-1" vertex="1">
          <mxGeometry x="45" y="91" width="10" height="46" as="geometry" />
        </mxCell>
        <mxCell id="VgFMn7d585Ha0XAmIZsE-6" value="1: open home page and &#xa;turn off &#xa;internet connection" style="verticalAlign=bottom;endArrow=block;shadow=0;strokeWidth=1;fontStyle=0;labelBorderColor=none;labelBackgroundColor=none;" parent="3nuBFxr9cyL0pnOWT2aG-1" edge="1">
          <mxGeometry relative="1" as="geometry">
            <mxPoint x="-90" y="91.00000000000011" as="sourcePoint" />
            <mxPoint x="45" y="91" as="targetPoint" />
          </mxGeometry>
        </mxCell>
        <mxCell id="3nuBFxr9cyL0pnOWT2aG-5" value="HomeUtilities" style="shape=umlLifeline;perimeter=lifelinePerimeter;container=1;collapsible=0;recursiveResize=0;rounded=0;shadow=0;strokeWidth=1;" parent="1" vertex="1">
          <mxGeometry x="-535" y="59" width="100" height="2771" as="geometry" />
        </mxCell>
        <mxCell id="VgFMn7d585Ha0XAmIZsE-7" value="2: isOfflineModeFeatureAvailable()" style="verticalAlign=bottom;endArrow=block;shadow=0;strokeWidth=1;fontStyle=0;labelBorderColor=none;labelBackgroundColor=none;entryX=-0.024;entryY=0.003;entryDx=0;entryDy=0;entryPerimeter=0;" parent="3nuBFxr9cyL0pnOWT2aG-5" edge="1">
          <mxGeometry relative="1" as="geometry">
            <mxPoint x="-169.63333333333344" y="110" as="sourcePoint" />
            <mxPoint x="44.76000000000022" y="110.21000000000004" as="targetPoint" />
          </mxGeometry>
        </mxCell>
        <mxCell id="VgFMn7d585Ha0XAmIZsE-16" value="" style="points=[];perimeter=orthogonalPerimeter;rounded=0;shadow=0;strokeWidth=1;" parent="3nuBFxr9cyL0pnOWT2aG-5" vertex="1">
          <mxGeometry x="45" y="111" width="10" height="209" as="geometry" />
        </mxCell>
        <mxCell id="VgFMn7d585Ha0XAmIZsE-17" value="" style="endArrow=classic;html=1;rounded=0;labelBackgroundColor=none;labelBorderColor=none;edgeStyle=elbowEdgeStyle;" parent="3nuBFxr9cyL0pnOWT2aG-5" edge="1">
          <mxGeometry x="-1" y="41" width="50" height="50" relative="1" as="geometry">
            <mxPoint x="55" y="130.5" as="sourcePoint" />
            <mxPoint x="55" y="150.5" as="targetPoint" />
            <Array as="points">
              <mxPoint x="75" y="140.5" />
            </Array>
            <mxPoint x="-40" y="31" as="offset" />
          </mxGeometry>
        </mxCell>
        <mxCell id="D12k0bA-BJYKIJGbDswn-10" value="" style="group" parent="1" vertex="1" connectable="0">
          <mxGeometry x="-860" y="59" width="20" height="710" as="geometry" />
        </mxCell>
        <mxCell id="D12k0bA-BJYKIJGbDswn-4" value="User" style="shape=umlActor;verticalLabelPosition=bottom;verticalAlign=top;html=1;outlineConnect=0;" parent="D12k0bA-BJYKIJGbDswn-10" vertex="1">
          <mxGeometry y="-20" width="20" height="40" as="geometry" />
        </mxCell>
        <mxCell id="VgFMn7d585Ha0XAmIZsE-1" value="HttpService" style="shape=umlLifeline;perimeter=lifelinePerimeter;container=1;collapsible=0;recursiveResize=0;rounded=0;shadow=0;strokeWidth=1;" parent="1" vertex="1">
          <mxGeometry x="-310" y="59" width="100" height="2771" as="geometry" />
        </mxCell>
        <mxCell id="VgFMn7d585Ha0XAmIZsE-3" value="BINUSMAYA 7 API" style="shape=umlLifeline;perimeter=lifelinePerimeter;container=1;collapsible=0;recursiveResize=0;rounded=0;shadow=0;strokeWidth=1;" parent="1" vertex="1">
          <mxGeometry x="-95" y="59" width="120" height="2771" as="geometry" />
        </mxCell>
        <mxCell id="VgFMn7d585Ha0XAmIZsE-19" value="&lt;font style=&quot;font-size: 11px;&quot;&gt;3: checkCurrentAcad-&lt;br&gt;OfflineModePermit()&lt;/font&gt;" style="text;html=1;strokeColor=none;fillColor=none;align=center;verticalAlign=middle;whiteSpace=wrap;rounded=0;" parent="1" vertex="1">
          <mxGeometry x="-450" y="190" width="110" height="20" as="geometry" />
        </mxCell>
        <mxCell id="VgFMn7d585Ha0XAmIZsE-21" value="" style="points=[];perimeter=orthogonalPerimeter;rounded=0;shadow=0;strokeWidth=1;" parent="1" vertex="1">
          <mxGeometry x="-855" y="100" width="10" height="2730" as="geometry" />
        </mxCell>
        <mxCell id="VgFMn7d585Ha0XAmIZsE-23" value="&lt;b&gt;alt&lt;/b&gt;" style="shape=umlFrame;whiteSpace=wrap;html=1;fontSize=11;width=30;height=20;fillColor=none;" parent="1" vertex="1">
          <mxGeometry x="-890" y="230" width="930" height="2400" as="geometry" />
        </mxCell>
        <mxCell id="VgFMn7d585Ha0XAmIZsE-24" value="&lt;span style=&quot;font-size: 10px;&quot;&gt;[Acad is not permitted to access Offline Mode]&lt;/span&gt;" style="text;html=1;strokeColor=none;fillColor=none;align=center;verticalAlign=middle;whiteSpace=wrap;rounded=0;" parent="1" vertex="1">
          <mxGeometry x="-840" y="230" width="110" height="35.5" as="geometry" />
        </mxCell>
        <mxCell id="VgFMn7d585Ha0XAmIZsE-25" value="" style="points=[];perimeter=orthogonalPerimeter;rounded=0;shadow=0;strokeWidth=1;" parent="1" vertex="1">
          <mxGeometry x="-715" y="249" width="10" height="81" as="geometry" />
        </mxCell>
        <mxCell id="VgFMn7d585Ha0XAmIZsE-26" value="4: return false" style="verticalAlign=bottom;endArrow=open;dashed=1;endSize=8;exitX=0;exitY=0.95;shadow=0;strokeWidth=1;entryX=1.046;entryY=0.283;entryDx=0;entryDy=0;entryPerimeter=0;" parent="1" edge="1">
          <mxGeometry relative="1" as="geometry">
            <mxPoint x="-705" y="249" as="targetPoint" />
            <mxPoint x="-490.46000000000004" y="249.22000000000003" as="sourcePoint" />
          </mxGeometry>
        </mxCell>
        <mxCell id="VgFMn7d585Ha0XAmIZsE-49" value="" style="line;strokeWidth=1;fillColor=none;align=left;verticalAlign=middle;spacingTop=-1;spacingLeft=3;spacingRight=3;rotatable=0;labelPosition=right;points=[];portConstraint=eastwest;strokeColor=inherit;fontSize=10;dashed=1;" parent="1" vertex="1">
          <mxGeometry x="-890" y="340" width="930" height="8" as="geometry" />
        </mxCell>
        <mxCell id="VgFMn7d585Ha0XAmIZsE-50" value="&lt;span style=&quot;font-size: 10px;&quot;&gt;[Acad is permitted to access Offline Mode]&lt;/span&gt;" style="text;html=1;strokeColor=none;fillColor=none;align=center;verticalAlign=middle;whiteSpace=wrap;rounded=0;" parent="1" vertex="1">
          <mxGeometry x="-845" y="344" width="110" height="35.5" as="geometry" />
        </mxCell>
        <mxCell id="VgFMn7d585Ha0XAmIZsE-52" value="6: return true" style="verticalAlign=bottom;endArrow=open;dashed=1;endSize=8;exitX=0;exitY=0.95;shadow=0;strokeWidth=1;entryX=1.046;entryY=0.283;entryDx=0;entryDy=0;entryPerimeter=0;" parent="1" edge="1">
          <mxGeometry relative="1" as="geometry">
            <mxPoint x="-705.0000000000002" y="368" as="targetPoint" />
            <mxPoint x="-490.46000000000004" y="368.2199999999999" as="sourcePoint" />
          </mxGeometry>
        </mxCell>
        <mxCell id="Guo4P8dY95QTmtFHYeZ4-5" value="5: show &#xa;&#39;No Internet Connection&#39; &#xa;floating header" style="verticalAlign=bottom;endArrow=open;dashed=1;endSize=8;shadow=0;strokeWidth=1;entryX=1.046;entryY=0.283;entryDx=0;entryDy=0;entryPerimeter=0;exitX=-0.105;exitY=0.86;exitDx=0;exitDy=0;exitPerimeter=0;labelBackgroundColor=none;" edge="1" parent="1" source="VgFMn7d585Ha0XAmIZsE-25">
          <mxGeometry relative="1" as="geometry">
            <mxPoint x="-844.9999999999998" y="318.5" as="targetPoint" />
            <mxPoint x="-720" y="319" as="sourcePoint" />
          </mxGeometry>
        </mxCell>
        <mxCell id="Guo4P8dY95QTmtFHYeZ4-6" value="" style="points=[];perimeter=orthogonalPerimeter;rounded=0;shadow=0;strokeWidth=1;" vertex="1" parent="1">
          <mxGeometry x="-715" y="368" width="10" height="42" as="geometry" />
        </mxCell>
        <mxCell id="Guo4P8dY95QTmtFHYeZ4-7" value="7: isOfflineDataExist()" style="verticalAlign=bottom;endArrow=block;shadow=0;strokeWidth=1;fontStyle=0;labelBorderColor=none;labelBackgroundColor=none;entryX=-0.024;entryY=0.003;entryDx=0;entryDy=0;entryPerimeter=0;" edge="1" parent="1">
          <mxGeometry relative="1" as="geometry">
            <mxPoint x="-705.0033333333332" y="400" as="sourcePoint" />
            <mxPoint x="-490.6099999999998" y="400.21000000000004" as="targetPoint" />
          </mxGeometry>
        </mxCell>
        <mxCell id="Guo4P8dY95QTmtFHYeZ4-8" value="" style="endArrow=classic;html=1;rounded=0;labelBackgroundColor=none;labelBorderColor=none;edgeStyle=elbowEdgeStyle;" edge="1" parent="1">
          <mxGeometry x="-1" y="41" width="50" height="50" relative="1" as="geometry">
            <mxPoint x="-480" y="420" as="sourcePoint" />
            <mxPoint x="-480" y="440" as="targetPoint" />
            <Array as="points">
              <mxPoint x="-460" y="430" />
            </Array>
            <mxPoint x="-40" y="31" as="offset" />
          </mxGeometry>
        </mxCell>
        <mxCell id="Guo4P8dY95QTmtFHYeZ4-9" value="&lt;font style=&quot;font-size: 11px;&quot;&gt;8: checkOfflineData- Exists()&lt;/font&gt;" style="text;html=1;strokeColor=none;fillColor=none;align=center;verticalAlign=middle;whiteSpace=wrap;rounded=0;" vertex="1" parent="1">
          <mxGeometry x="-450" y="420.5" width="110" height="20" as="geometry" />
        </mxCell>
        <mxCell id="Guo4P8dY95QTmtFHYeZ4-10" value="" style="points=[];perimeter=orthogonalPerimeter;rounded=0;shadow=0;strokeWidth=1;" vertex="1" parent="1">
          <mxGeometry x="-490" y="400" width="10" height="220" as="geometry" />
        </mxCell>
        <mxCell id="Guo4P8dY95QTmtFHYeZ4-11" value="&lt;b&gt;alt&lt;/b&gt;" style="shape=umlFrame;whiteSpace=wrap;html=1;fontSize=11;width=30;height=20;fillColor=none;" vertex="1" parent="1">
          <mxGeometry x="-890" y="460" width="420" height="210" as="geometry" />
        </mxCell>
        <mxCell id="Guo4P8dY95QTmtFHYeZ4-12" value="&lt;span style=&quot;font-size: 10px;&quot;&gt;[Offline data exists]&lt;/span&gt;" style="text;html=1;strokeColor=none;fillColor=none;align=left;verticalAlign=middle;whiteSpace=wrap;rounded=0;" vertex="1" parent="1">
          <mxGeometry x="-845" y="460" width="110" height="20" as="geometry" />
        </mxCell>
        <mxCell id="Guo4P8dY95QTmtFHYeZ4-13" value="9: return true" style="verticalAlign=bottom;endArrow=open;dashed=1;endSize=8;exitX=0;exitY=0.95;shadow=0;strokeWidth=1;entryX=1.046;entryY=0.283;entryDx=0;entryDy=0;entryPerimeter=0;" edge="1" parent="1">
          <mxGeometry relative="1" as="geometry">
            <mxPoint x="-704.54" y="490" as="targetPoint" />
            <mxPoint x="-490.00000000000006" y="490.2199999999999" as="sourcePoint" />
          </mxGeometry>
        </mxCell>
        <mxCell id="Guo4P8dY95QTmtFHYeZ4-14" value="" style="points=[];perimeter=orthogonalPerimeter;rounded=0;shadow=0;strokeWidth=1;" vertex="1" parent="1">
          <mxGeometry x="-715" y="490" width="10" height="80" as="geometry" />
        </mxCell>
        <mxCell id="Guo4P8dY95QTmtFHYeZ4-15" value="10: show &#xa;&#39;You are currently &#xa;accessing BINUSMAYA &#xa;LMS Offline Mode&#39; &#xa;floating header" style="verticalAlign=bottom;endArrow=open;dashed=1;endSize=8;shadow=0;strokeWidth=1;entryX=1.046;entryY=0.283;entryDx=0;entryDy=0;entryPerimeter=0;exitX=-0.105;exitY=0.86;exitDx=0;exitDy=0;exitPerimeter=0;labelBackgroundColor=none;" edge="1" parent="1">
          <mxGeometry relative="1" as="geometry">
            <mxPoint x="-844.9999999999998" y="559.35" as="targetPoint" />
            <mxPoint x="-716.0500000000002" y="559.51" as="sourcePoint" />
          </mxGeometry>
        </mxCell>
        <mxCell id="Guo4P8dY95QTmtFHYeZ4-18" value="" style="line;strokeWidth=1;fillColor=none;align=left;verticalAlign=middle;spacingTop=-1;spacingLeft=3;spacingRight=3;rotatable=0;labelPosition=right;points=[];portConstraint=eastwest;strokeColor=inherit;fontSize=10;dashed=1;" vertex="1" parent="1">
          <mxGeometry x="-890" y="580" width="420" height="8" as="geometry" />
        </mxCell>
        <mxCell id="Guo4P8dY95QTmtFHYeZ4-19" value="&lt;span style=&quot;font-size: 10px;&quot;&gt;[Offline data not exists]&lt;/span&gt;" style="text;html=1;strokeColor=none;fillColor=none;align=left;verticalAlign=middle;whiteSpace=wrap;rounded=0;" vertex="1" parent="1">
          <mxGeometry x="-845" y="584" width="110" height="20" as="geometry" />
        </mxCell>
        <mxCell id="Guo4P8dY95QTmtFHYeZ4-20" value="" style="points=[];perimeter=orthogonalPerimeter;rounded=0;shadow=0;strokeWidth=1;" vertex="1" parent="1">
          <mxGeometry x="-715" y="604" width="10" height="56" as="geometry" />
        </mxCell>
        <mxCell id="Guo4P8dY95QTmtFHYeZ4-21" value="11: return false" style="verticalAlign=bottom;endArrow=open;dashed=1;endSize=8;exitX=0;exitY=0.95;shadow=0;strokeWidth=1;entryX=1.046;entryY=0.283;entryDx=0;entryDy=0;entryPerimeter=0;" edge="1" parent="1">
          <mxGeometry relative="1" as="geometry">
            <mxPoint x="-704.5399999999997" y="604" as="targetPoint" />
            <mxPoint x="-490.0000000000002" y="604.2199999999999" as="sourcePoint" />
          </mxGeometry>
        </mxCell>
        <mxCell id="Guo4P8dY95QTmtFHYeZ4-22" value="12: show &#xa;&#39;No Internet Connection&#39; &#xa;floating header" style="verticalAlign=bottom;endArrow=open;dashed=1;endSize=8;shadow=0;strokeWidth=1;entryX=1.046;entryY=0.283;entryDx=0;entryDy=0;entryPerimeter=0;exitX=-0.105;exitY=0.86;exitDx=0;exitDy=0;exitPerimeter=0;labelBackgroundColor=none;" edge="1" parent="1">
          <mxGeometry relative="1" as="geometry">
            <mxPoint x="-843.9499999999998" y="650.0000000000001" as="targetPoint" />
            <mxPoint x="-715.0000000000002" y="650.16" as="sourcePoint" />
          </mxGeometry>
        </mxCell>
        <mxCell id="Guo4P8dY95QTmtFHYeZ4-23" value="13: open role menu" style="verticalAlign=bottom;endArrow=block;shadow=0;strokeWidth=1;fontStyle=0;labelBorderColor=none;labelBackgroundColor=none;entryX=0.073;entryY=-0.003;entryDx=0;entryDy=0;entryPerimeter=0;" edge="1" parent="1" target="Guo4P8dY95QTmtFHYeZ4-24">
          <mxGeometry relative="1" as="geometry">
            <mxPoint x="-845" y="693.0000000000002" as="sourcePoint" />
            <mxPoint x="-720" y="693" as="targetPoint" />
          </mxGeometry>
        </mxCell>
        <mxCell id="Guo4P8dY95QTmtFHYeZ4-24" value="" style="points=[];perimeter=orthogonalPerimeter;rounded=0;shadow=0;strokeWidth=1;" vertex="1" parent="1">
          <mxGeometry x="-715" y="693" width="10" height="56" as="geometry" />
        </mxCell>
      </root>
    </mxGraphModel>
  </diagram>
</mxfile>
